<?xml version="1.0" encoding="utf-8"?>
<!-- Generator: Adobe Illustrator 25.2.1, SVG Export Plug-In . SVG Version: 6.00 Build 0)  -->
<svg version="1.1" id="Layer_1" xmlns="http://www.w3.org/2000/svg" xmlns:xlink="http://www.w3.org/1999/xlink" x="0px" y="0px"
	 width="174px" height="78px" viewBox="0 0 174 78" style="enable-background:new 0 0 174 78;" xml:space="preserve">
<style type="text/css">
	.st0{fill:#A31F34;}
	.st1{fill:#060000;}
	.st2{fill:#231F20;}
	.st3{fill:#999999;}
</style>
<g id="uber-template---dummy-mock">
	<g id="logo_mitxpro">
		<g id="logo_MITxpro">
			<polygon id="Fill-1" points="52.4,17.4 72.4,17.4 72.4,9.4 52.4,9.4 			"/>
			<polygon id="Fill-2" points="13.4,35.4 21.4,35.4 21.4,9.4 13.4,9.4 			"/>
			<polygon id="Fill-3" points="26.4,47.4 34.4,47.4 34.4,9.4 26.4,9.4 			"/>
			<polygon id="Fill-4" points="0.4,47.4 8.4,47.4 8.4,9.4 0.4,9.4 			"/>
			<polygon id="Fill-5" points="52.4,47.4 60.4,47.4 60.4,22.4 52.4,22.4 			"/>
			<polygon id="Fill-6" points="39.4,17.4 47.4,17.4 47.4,9.4 39.4,9.4 			"/>
			<polygon id="Fill-7" class="st0" points="39.4,47.4 47.4,47.4 47.4,22.4 39.4,22.4 			"/>
			<polygon id="Fill-8" class="st1" points="88.4,55.4 89.4,55.4 89.4,1.4 88.4,1.4 			"/>
			<polygon id="Fill-9" class="st2" points="112.1,35 109.9,39.4 104.7,39.4 109,32 105,24.9 110.1,24.9 112.1,29.1 114.1,24.9 
				119.2,24.9 115.2,32 119.5,39.4 114.4,39.4 			"/>
			<g id="Group-16" transform="translate(120.000000, 15.000000)">
				<path id="Fill-10" class="st2" d="M6.1,12.7h2.8c2.3,0,2.8-1.8,2.8-2.9s-0.4-2.9-2.8-2.9H6.1V12.7z M6.1,24.4H1.4V2.7h7.4
					c5.8,0,7.8,3.4,7.8,7.1c0,3.8-2,7.1-7.8,7.1H6.1V24.4z"/>
				<path id="Fill-12" class="st2" d="M23.2,12.1h3.2c2.1,0,2.3-1.4,2.3-2.6c0-1.2-0.3-2.6-2.3-2.6h-3.2V12.1z M23.2,24.4h-4.6V2.7
					h7.4c5.9,0,7.8,2.7,7.8,6.8c0,2.7-0.8,4.8-3,5.9l3.9,9.1h-5.4l-2.9-8.2h-3V24.4z"/>
				<path id="Fill-14" class="st2" d="M40.9,13.6c0,5.1,1.1,7.1,4,7.1c2.9,0,4-2,4-7.1s-1.1-7.1-4-7.1C42,6.5,40.9,8.5,40.9,13.6
					 M36.2,13.6c0-6.6,1.8-11.3,8.7-11.3c6.8,0,8.7,4.6,8.7,11.3s-1.8,11.3-8.7,11.3C38.1,24.8,36.2,20.2,36.2,13.6"/>
			</g>
		</g>
		<g>
			<path class="st3" d="M1.7,76.4v-9.5h1.3v9.5H1.7z"/>
			<path class="st3" d="M5,76.4v-6.9h1v1c0.5-0.8,1.2-1.1,2.2-1.1c0.4,0,0.8,0.1,1.1,0.2c0.3,0.1,0.6,0.3,0.8,0.6
				c0.2,0.2,0.3,0.5,0.4,0.9c0,0.2,0.1,0.6,0.1,1.1v4.2H9.4v-4.2c0-0.5,0-0.8-0.1-1.1c-0.1-0.2-0.3-0.4-0.5-0.6
				c-0.2-0.1-0.5-0.2-0.8-0.2c-0.5,0-0.9,0.2-1.3,0.5s-0.5,0.9-0.5,1.8v3.8H5z"/>
			<path class="st3" d="M20.5,73.9l1.1,0.1c-0.1,0.8-0.4,1.4-1,1.9c-0.5,0.4-1.1,0.7-1.9,0.7c-0.9,0-1.7-0.3-2.3-0.9
				C16,75,15.7,74.2,15.7,73c0-0.7,0.1-1.4,0.4-1.9s0.6-1,1.1-1.3c0.5-0.3,1-0.4,1.6-0.4c0.7,0,1.4,0.2,1.8,0.6
				c0.5,0.4,0.8,0.9,0.9,1.6l-1.1,0.2c-0.1-0.5-0.3-0.8-0.6-1c-0.3-0.2-0.6-0.3-1-0.3c-0.6,0-1.1,0.2-1.4,0.6
				c-0.4,0.4-0.6,1.1-0.6,2c0,0.9,0.2,1.6,0.5,2c0.4,0.4,0.8,0.6,1.4,0.6c0.5,0,0.8-0.1,1.1-0.4C20.3,74.9,20.4,74.5,20.5,73.9z"/>
			<path class="st3" d="M22.2,73c0-1.3,0.4-2.2,1.1-2.8c0.6-0.5,1.3-0.8,2.2-0.8c0.9,0,1.7,0.3,2.3,0.9c0.6,0.6,0.9,1.5,0.9,2.6
				c0,0.9-0.1,1.6-0.4,2.1c-0.3,0.5-0.7,0.9-1.2,1.2c-0.5,0.3-1.1,0.4-1.7,0.4c-1,0-1.7-0.3-2.3-0.9S22.2,74.1,22.2,73z M23.4,73
				c0,0.9,0.2,1.5,0.6,2c0.4,0.4,0.9,0.7,1.5,0.7c0.6,0,1.1-0.2,1.4-0.7c0.4-0.4,0.6-1.1,0.6-2c0-0.9-0.2-1.5-0.6-1.9
				c-0.4-0.4-0.9-0.7-1.4-0.7c-0.6,0-1.1,0.2-1.5,0.7C23.6,71.4,23.4,72.1,23.4,73z"/>
			<path class="st3" d="M30,76.4v-9.5h1.2v9.5H30z"/>
			<path class="st3" d="M33,76.4v-9.5h1.2v9.5H33z"/>
			<path class="st3" d="M40.4,75.6c-0.4,0.4-0.8,0.6-1.2,0.8s-0.8,0.2-1.3,0.2c-0.8,0-1.3-0.2-1.7-0.6c-0.4-0.4-0.6-0.8-0.6-1.4
				c0-0.3,0.1-0.6,0.2-0.9c0.2-0.3,0.4-0.5,0.6-0.7c0.2-0.2,0.5-0.3,0.8-0.4c0.2-0.1,0.6-0.1,1-0.2c0.9-0.1,1.6-0.2,2.1-0.4
				c0-0.2,0-0.3,0-0.3c0-0.5-0.1-0.8-0.3-1c-0.3-0.3-0.7-0.4-1.3-0.4c-0.5,0-1,0.1-1.2,0.3c-0.3,0.2-0.5,0.5-0.6,1l-1.1-0.2
				c0.1-0.5,0.3-0.9,0.5-1.2s0.6-0.5,1-0.7c0.4-0.2,1-0.2,1.6-0.2c0.6,0,1.1,0.1,1.4,0.2c0.4,0.1,0.6,0.3,0.8,0.5
				c0.2,0.2,0.3,0.5,0.4,0.8c0,0.2,0.1,0.6,0.1,1.1v1.6c0,1.1,0,1.8,0.1,2.1c0,0.3,0.1,0.6,0.3,0.8h-1.2
				C40.5,76.2,40.5,75.9,40.4,75.6z M40.3,73c-0.4,0.2-1.1,0.3-1.9,0.4c-0.5,0.1-0.8,0.1-1,0.2c-0.2,0.1-0.4,0.2-0.5,0.4
				c-0.1,0.2-0.2,0.4-0.2,0.6c0,0.3,0.1,0.6,0.4,0.8c0.2,0.2,0.6,0.3,1,0.3c0.4,0,0.8-0.1,1.2-0.3s0.6-0.5,0.8-0.8
				c0.1-0.3,0.2-0.7,0.2-1.2V73z"/>
			<path class="st3" d="M44.4,76.4h-1.1v-9.5h1.2v3.4c0.5-0.6,1.1-0.9,1.9-0.9c0.4,0,0.8,0.1,1.2,0.3c0.4,0.2,0.7,0.4,0.9,0.7
				c0.2,0.3,0.4,0.7,0.6,1.1c0.1,0.4,0.2,0.9,0.2,1.4c0,1.2-0.3,2.1-0.9,2.7c-0.6,0.6-1.3,1-2.1,1c-0.8,0-1.4-0.3-1.9-1V76.4z
				 M44.4,72.9c0,0.8,0.1,1.4,0.3,1.8c0.4,0.6,0.9,0.9,1.5,0.9c0.5,0,0.9-0.2,1.3-0.7s0.6-1.1,0.6-2c0-0.9-0.2-1.6-0.5-2
				c-0.4-0.4-0.8-0.6-1.3-0.6c-0.5,0-0.9,0.2-1.3,0.7C44.6,71.5,44.4,72.1,44.4,72.9z"/>
			<path class="st3" d="M50.2,73c0-1.3,0.4-2.2,1.1-2.8c0.6-0.5,1.3-0.8,2.2-0.8c0.9,0,1.7,0.3,2.3,0.9c0.6,0.6,0.9,1.5,0.9,2.6
				c0,0.9-0.1,1.6-0.4,2.1c-0.3,0.5-0.7,0.9-1.2,1.2c-0.5,0.3-1.1,0.4-1.7,0.4c-1,0-1.7-0.3-2.3-0.9S50.2,74.1,50.2,73z M51.4,73
				c0,0.9,0.2,1.5,0.6,2c0.4,0.4,0.9,0.7,1.5,0.7c0.6,0,1.1-0.2,1.4-0.7c0.4-0.4,0.6-1.1,0.6-2c0-0.9-0.2-1.5-0.6-1.9
				c-0.4-0.4-0.9-0.7-1.4-0.7c-0.6,0-1.1,0.2-1.5,0.7C51.6,71.4,51.4,72.1,51.4,73z"/>
			<path class="st3" d="M58,76.4v-6.9h1v1c0.3-0.5,0.5-0.8,0.7-1s0.5-0.2,0.7-0.2c0.4,0,0.8,0.1,1.2,0.4l-0.4,1.1
				c-0.3-0.2-0.6-0.3-0.9-0.3c-0.3,0-0.5,0.1-0.7,0.2c-0.2,0.2-0.3,0.4-0.4,0.6c-0.1,0.4-0.2,0.9-0.2,1.4v3.6H58z"/>
			<path class="st3" d="M66.9,75.6c-0.4,0.4-0.8,0.6-1.2,0.8s-0.8,0.2-1.3,0.2c-0.8,0-1.3-0.2-1.7-0.6c-0.4-0.4-0.6-0.8-0.6-1.4
				c0-0.3,0.1-0.6,0.2-0.9c0.2-0.3,0.4-0.5,0.6-0.7c0.2-0.2,0.5-0.3,0.8-0.4c0.2-0.1,0.6-0.1,1-0.2c0.9-0.1,1.6-0.2,2.1-0.4
				c0-0.2,0-0.3,0-0.3c0-0.5-0.1-0.8-0.3-1c-0.3-0.3-0.7-0.4-1.3-0.4c-0.5,0-1,0.1-1.2,0.3c-0.3,0.2-0.5,0.5-0.6,1l-1.1-0.2
				c0.1-0.5,0.3-0.9,0.5-1.2s0.6-0.5,1-0.7c0.4-0.2,1-0.2,1.6-0.2c0.6,0,1.1,0.1,1.4,0.2c0.4,0.1,0.6,0.3,0.8,0.5
				c0.2,0.2,0.3,0.5,0.4,0.8c0,0.2,0.1,0.6,0.1,1.1v1.6c0,1.1,0,1.8,0.1,2.1c0,0.3,0.1,0.6,0.3,0.8h-1.2
				C67.1,76.2,67,75.9,66.9,75.6z M66.9,73c-0.4,0.2-1.1,0.3-1.9,0.4c-0.5,0.1-0.8,0.1-1,0.2c-0.2,0.1-0.4,0.2-0.5,0.4
				c-0.1,0.2-0.2,0.4-0.2,0.6c0,0.3,0.1,0.6,0.4,0.8c0.2,0.2,0.6,0.3,1,0.3c0.4,0,0.8-0.1,1.2-0.3s0.6-0.5,0.8-0.8
				c0.1-0.3,0.2-0.7,0.2-1.2V73z"/>
			<path class="st3" d="M72.4,75.4l0.2,1c-0.3,0.1-0.6,0.1-0.9,0.1c-0.4,0-0.8-0.1-1-0.2s-0.4-0.3-0.5-0.5c-0.1-0.2-0.1-0.7-0.1-1.4
				v-4h-0.9v-0.9H70v-1.7l1.2-0.7v2.4h1.2v0.9h-1.2v4c0,0.3,0,0.5,0.1,0.6s0.1,0.2,0.2,0.2c0.1,0.1,0.2,0.1,0.4,0.1
				C72,75.4,72.2,75.4,72.4,75.4z"/>
			<path class="st3" d="M73.5,68.3v-1.3h1.2v1.3H73.5z M73.5,76.4v-6.9h1.2v6.9H73.5z"/>
			<path class="st3" d="M76,73c0-1.3,0.4-2.2,1.1-2.8c0.6-0.5,1.3-0.8,2.2-0.8c0.9,0,1.7,0.3,2.3,0.9c0.6,0.6,0.9,1.5,0.9,2.6
				c0,0.9-0.1,1.6-0.4,2.1c-0.3,0.5-0.7,0.9-1.2,1.2c-0.5,0.3-1.1,0.4-1.7,0.4c-1,0-1.7-0.3-2.3-0.9S76,74.1,76,73z M77.2,73
				c0,0.9,0.2,1.5,0.6,2c0.4,0.4,0.9,0.7,1.5,0.7c0.6,0,1.1-0.2,1.4-0.7c0.4-0.4,0.6-1.1,0.6-2c0-0.9-0.2-1.5-0.6-1.9
				c-0.4-0.4-0.9-0.7-1.4-0.7c-0.6,0-1.1,0.2-1.5,0.7C77.4,71.4,77.2,72.1,77.2,73z"/>
			<path class="st3" d="M83.8,76.4v-6.9h1v1c0.5-0.8,1.2-1.1,2.2-1.1c0.4,0,0.8,0.1,1.1,0.2c0.3,0.1,0.6,0.3,0.8,0.6
				c0.2,0.2,0.3,0.5,0.4,0.9c0,0.2,0.1,0.6,0.1,1.1v4.2h-1.2v-4.2c0-0.5,0-0.8-0.1-1.1c-0.1-0.2-0.3-0.4-0.5-0.6
				c-0.2-0.1-0.5-0.2-0.8-0.2c-0.5,0-0.9,0.2-1.3,0.5S85,71.8,85,72.7v3.8H83.8z"/>
			<path class="st3" d="M96.2,76.4l-2.1-6.9h1.2l1.1,4l0.4,1.5c0-0.1,0.1-0.5,0.4-1.4l1.1-4h1.2l1,4l0.3,1.3l0.4-1.3l1.2-4h1.1
				l-2.1,6.9h-1.2L99,72.3l-0.3-1.2l-1.4,5.3H96.2z"/>
			<path class="st3" d="M104.5,68.3v-1.3h1.2v1.3H104.5z M104.5,76.4v-6.9h1.2v6.9H104.5z"/>
			<path class="st3" d="M110,75.4l0.2,1c-0.3,0.1-0.6,0.1-0.9,0.1c-0.4,0-0.8-0.1-1-0.2s-0.4-0.3-0.5-0.5s-0.1-0.7-0.1-1.4v-4h-0.9
				v-0.9h0.9v-1.7l1.2-0.7v2.4h1.2v0.9h-1.2v4c0,0.3,0,0.5,0.1,0.6s0.1,0.2,0.2,0.2c0.1,0.1,0.2,0.1,0.4,0.1
				C109.6,75.4,109.7,75.4,110,75.4z"/>
			<path class="st3" d="M111.1,76.4v-9.5h1.2v3.4c0.5-0.6,1.2-0.9,2.1-0.9c0.5,0,1,0.1,1.3,0.3c0.4,0.2,0.6,0.5,0.8,0.8
				c0.2,0.4,0.2,0.9,0.2,1.5v4.4h-1.2v-4.4c0-0.6-0.1-1-0.4-1.3c-0.3-0.3-0.6-0.4-1.1-0.4c-0.3,0-0.7,0.1-1,0.3
				c-0.3,0.2-0.5,0.4-0.7,0.7c-0.1,0.3-0.2,0.7-0.2,1.3v3.8H111.1z"/>
			<path class="st3" d="M122.3,76.4v-9.5h6.9v1.1h-5.6V71h5.2v1.1h-5.2v3.2h5.8v1.1H122.3z"/>
			<path class="st3" d="M131,76.4v-6.9h1v1c0.2-0.3,0.5-0.6,0.9-0.8c0.4-0.2,0.8-0.3,1.2-0.3c0.5,0,0.9,0.1,1.3,0.3
				c0.3,0.2,0.6,0.5,0.7,0.9c0.5-0.8,1.3-1.2,2.1-1.2c0.7,0,1.2,0.2,1.6,0.6c0.4,0.4,0.5,1,0.5,1.7v4.7h-1.2v-4.3c0-0.5,0-0.8-0.1-1
				c-0.1-0.2-0.2-0.4-0.4-0.5c-0.2-0.1-0.4-0.2-0.7-0.2c-0.5,0-0.9,0.2-1.2,0.5s-0.5,0.8-0.5,1.5v4h-1.2V72c0-0.5-0.1-0.9-0.3-1.2
				c-0.2-0.3-0.5-0.4-0.9-0.4c-0.3,0-0.6,0.1-0.9,0.3c-0.3,0.2-0.5,0.4-0.6,0.8c-0.1,0.3-0.2,0.8-0.2,1.4v3.6H131z"/>
			<path class="st3" d="M146.7,74.2l1.2,0.1c-0.2,0.7-0.5,1.2-1.1,1.6c-0.5,0.4-1.2,0.6-2,0.6c-1,0-1.8-0.3-2.4-0.9
				s-0.9-1.5-0.9-2.6c0-1.2,0.3-2.1,0.9-2.7c0.6-0.6,1.4-1,2.3-1c0.9,0,1.7,0.3,2.3,0.9c0.6,0.6,0.9,1.5,0.9,2.6c0,0.1,0,0.2,0,0.3
				h-5.1c0,0.8,0.3,1.3,0.6,1.7s0.9,0.6,1.4,0.6c0.4,0,0.8-0.1,1.1-0.3C146.3,75.1,146.6,74.7,146.7,74.2z M142.9,72.3h3.8
				c-0.1-0.6-0.2-1-0.4-1.3c-0.4-0.4-0.9-0.7-1.4-0.7c-0.5,0-1,0.2-1.3,0.5C143.1,71.2,142.9,71.7,142.9,72.3z"/>
			<path class="st3" d="M149.4,76.4v-6.9h1v1c0.3-0.5,0.5-0.8,0.7-1s0.5-0.2,0.7-0.2c0.4,0,0.8,0.1,1.2,0.4l-0.4,1.1
				c-0.3-0.2-0.6-0.3-0.9-0.3c-0.3,0-0.5,0.1-0.7,0.2c-0.2,0.2-0.3,0.4-0.4,0.6c-0.1,0.4-0.2,0.9-0.2,1.4v3.6H149.4z"/>
			<path class="st3" d="M153.8,68.3v-1.3h1.2v1.3H153.8z M153.8,76.4v-6.9h1.2v6.9H153.8z"/>
			<path class="st3" d="M159.3,75.4l0.2,1c-0.3,0.1-0.6,0.1-0.9,0.1c-0.4,0-0.8-0.1-1-0.2s-0.4-0.3-0.5-0.5s-0.1-0.7-0.1-1.4v-4
				h-0.9v-0.9h0.9v-1.7l1.2-0.7v2.4h1.2v0.9h-1.2v4c0,0.3,0,0.5,0.1,0.6s0.1,0.2,0.2,0.2c0.1,0.1,0.2,0.1,0.4,0.1
				C158.9,75.4,159.1,75.4,159.3,75.4z"/>
			<path class="st3" d="M164.9,76.4v-1c-0.5,0.8-1.3,1.2-2.2,1.2c-0.4,0-0.8-0.1-1.1-0.2c-0.4-0.2-0.6-0.3-0.8-0.6s-0.3-0.5-0.4-0.9
				c0-0.2-0.1-0.6-0.1-1.1v-4.3h1.2v3.8c0,0.6,0,1,0.1,1.2c0.1,0.3,0.2,0.5,0.5,0.7s0.5,0.3,0.9,0.3s0.7-0.1,1-0.3
				c0.3-0.2,0.5-0.4,0.7-0.7c0.1-0.3,0.2-0.8,0.2-1.3v-3.7h1.2v6.9H164.9z"/>
			<path class="st3" d="M167.4,74.4l1.2-0.2c0.1,0.5,0.2,0.8,0.5,1.1c0.3,0.2,0.7,0.4,1.2,0.4c0.5,0,0.9-0.1,1.2-0.3
				c0.3-0.2,0.4-0.5,0.4-0.8c0-0.3-0.1-0.5-0.3-0.6c-0.2-0.1-0.6-0.2-1.2-0.4c-0.9-0.2-1.4-0.4-1.8-0.6s-0.6-0.4-0.8-0.7
				c-0.2-0.3-0.3-0.6-0.3-0.9c0-0.3,0.1-0.6,0.2-0.9c0.1-0.3,0.3-0.5,0.6-0.7c0.2-0.1,0.4-0.2,0.7-0.3c0.3-0.1,0.6-0.1,1-0.1
				c0.5,0,1,0.1,1.4,0.2c0.4,0.2,0.7,0.4,0.9,0.6s0.3,0.6,0.4,1.1l-1.1,0.2c-0.1-0.4-0.2-0.6-0.5-0.8s-0.6-0.3-1.1-0.3
				c-0.5,0-0.9,0.1-1.1,0.3s-0.3,0.4-0.3,0.6c0,0.2,0,0.3,0.1,0.4c0.1,0.1,0.2,0.2,0.4,0.3c0.1,0,0.5,0.1,1,0.3
				c0.8,0.2,1.4,0.4,1.7,0.5c0.3,0.1,0.6,0.3,0.8,0.6s0.3,0.6,0.3,1c0,0.4-0.1,0.8-0.3,1.1c-0.2,0.3-0.6,0.6-1,0.8
				c-0.4,0.2-0.9,0.3-1.4,0.3c-0.9,0-1.6-0.2-2-0.6C167.8,75.6,167.5,75.1,167.4,74.4z"/>
		</g>
	</g>
</g>
</svg>
